HIERARCHY
ROOT joint_Root
{
	OFFSET 0.0 0.0 0.0
	CHANNELS 6 Xposition Yposition Zposition Zrotation Xrotation Yrotation 
	JOINT Hips
	{
		OFFSET -0.726466 93.3139 -2.00062
		CHANNELS 6 Xposition Yposition Zposition Zrotation Xrotation Yrotation 
		JOINT Spine
		{
			OFFSET 15.7357 0.0 0.0
			CHANNELS 6 Xposition Yposition Zposition Zrotation Xrotation Yrotation 
			JOINT Chest
			{
				OFFSET 8.98455 -0.406207 0.0
				CHANNELS 6 Xposition Yposition Zposition Zrotation Xrotation Yrotation 
				JOINT Neck
				{
					OFFSET 16.3773 0.0 0.0
					CHANNELS 6 Xposition Yposition Zposition Zrotation Xrotation Yrotation 
					JOINT Head
					{
						OFFSET 6.45672 0.0 0.0
						CHANNELS 6 Xposition Yposition Zposition Zrotation Xrotation Yrotation 
						End Site
						{
							OFFSET 0.0 0.0 0.0
						}
					}
				}
				JOINT Shoulder_L
				{
					OFFSET 12.9942 -0.242716 4.98039
					CHANNELS 6 Xposition Yposition Zposition Zrotation Xrotation Yrotation 
					JOINT UpperArm_L
					{
						OFFSET 5.34809 0.0 0.0
						CHANNELS 6 Xposition Yposition Zposition Zrotation Xrotation Yrotation 
						JOINT LowerArm_L
						{
							OFFSET 24.3286 1.87007e-05 0.0
							CHANNELS 6 Xposition Yposition Zposition Zrotation Xrotation Yrotation 
							JOINT Hand_L
							{
								OFFSET 22.2916 0.0 0.0
								CHANNELS 6 Xposition Yposition Zposition Zrotation Xrotation Yrotation 
								End Site
								{
									OFFSET 0.0 0.0 0.0
								}
							}
						}
					}
				}
				JOINT Shoulder_R
				{
					OFFSET 12.9945 -0.242716 -4.98039
					CHANNELS 6 Xposition Yposition Zposition Zrotation Xrotation Yrotation 
					JOINT UpperArm_R
					{
						OFFSET -5.34813 0.0 0.0
						CHANNELS 6 Xposition Yposition Zposition Zrotation Xrotation Yrotation 
						JOINT LowerArm_R
						{
							OFFSET -24.3289 0.000322201 0.0
							CHANNELS 6 Xposition Yposition Zposition Zrotation Xrotation Yrotation 
							JOINT Hand_R
							{
								OFFSET -22.2915 -0.000108084 0.0
								CHANNELS 6 Xposition Yposition Zposition Zrotation Xrotation Yrotation 
								End Site
								{
									OFFSET 0.0 0.0 0.0
								}
							}
						}
					}
				}
			}
		}
		JOINT UpperLeg_L
		{
			OFFSET -2.19248 -6.46944 0.0
			CHANNELS 6 Xposition Yposition Zposition Zrotation Xrotation Yrotation 
			JOINT LowerLeg_L
			{
				OFFSET 39.0811 0.0 -1.23785e-05
				CHANNELS 6 Xposition Yposition Zposition Zrotation Xrotation Yrotation 
				JOINT Foot_L
				{
					OFFSET 40.9854 0.0 -1.26872e-05
					CHANNELS 6 Xposition Yposition Zposition Zrotation Xrotation Yrotation 
					JOINT Toes_L
					{
						OFFSET 11.7543 0.0 0.0
						CHANNELS 6 Xposition Yposition Zposition Zrotation Xrotation Yrotation 
						End Site
						{
							OFFSET 0.0 0.0 0.0
						}
					}
				}
			}
		}
		JOINT UpperLeg_R
		{
			OFFSET -2.19251 6.46944 0.0
			CHANNELS 6 Xposition Yposition Zposition Zrotation Xrotation Yrotation 
			JOINT LowerLeg_R
			{
				OFFSET -39.0811 -0.00228153 -0.0401928
				CHANNELS 6 Xposition Yposition Zposition Zrotation Xrotation Yrotation 
				JOINT Foot_R
				{
					OFFSET -40.9854 0.0 0.0
					CHANNELS 6 Xposition Yposition Zposition Zrotation Xrotation Yrotation 
					JOINT Toes_R
					{
						OFFSET -11.7543 0.0 0.0
						CHANNELS 6 Xposition Yposition Zposition Zrotation Xrotation Yrotation 
						End Site
						{
							OFFSET 0.0 0.0 0.0
						}
					}
				}
			}
		}
	}
}
MOTION
Frames:	4
Frame Time:	0.0333333
0.000000 0.000000 0.000000 0.000000 0.000000 -0.000000 139.103000 87.520800 124.070000 91.794000 -24.929000 1.881440 15.735700 0.000005 -0.000001 52.135700 81.203400 -50.883000 8.984550 -0.406207 -0.000000 6.329540 -10.783700 3.106200 16.377300 -0.000001 -0.000001 4.277940 -15.713300 1.503050 6.456720 -0.000001 -0.000000 -0.843004 -17.025900 10.851200 12.994200 -0.242716 4.980390 -88.724900 -4.286280 -73.415700 5.348090 -0.000007 -0.000001 -48.141000 13.251600 -38.145500 24.328600 0.000019 0.000005 2.634270 1.810340 -55.525000 22.291600 -0.000001 0.000005 4.792740 5.561850 -9.278120 12.994500 -0.242716 -4.980390 88.012900 3.648250 -61.398200 -5.348130 -0.000001 -0.000004 -64.416800 20.411900 7.808640 -24.328900 0.000322 -0.000009 4.932230 10.679200 -24.975700 -22.291500 -0.000108 -0.000004 1.878470 5.509610 -6.925350 -2.192480 -6.469440 -0.000000 -172.446000 -15.466100 8.112220 39.081100 -0.000007 -0.000012 -0.016704 0.034112 26.091200 40.985400 -0.000006 -0.000013 -7.862670 -5.113720 -78.781900 11.754300 -0.000000 0.000003 -1.943740 -2.489190 -16.793000 -2.192510 6.469440 -0.000001 -160.450000 36.434500 142.706000 -39.081100 -0.002282 -0.040193 -0.041438 0.112110 21.762700 -40.985400 0.000008 0.000006 8.017980 -12.304500 -49.574000 -11.754300 -0.000006 -0.000006 -0.021943 -0.177820 -23.842000
0.000000 0.000000 0.000000 0.000000 0.000000 -0.000000 136.626000 86.840100 127.495000 91.453900 -24.003800 1.632030 15.735700 0.000005 -0.000001 51.535900 81.298000 -49.708000 8.984550 -0.406207 -0.000000 6.122260 -10.823200 4.240710 16.377300 -0.000001 -0.000001 4.340230 -16.353400 1.757850 6.456720 -0.000001 -0.000000 -0.893433 -17.693100 11.009100 12.994200 -0.242716 4.980390 -88.817200 -4.083650 -73.831200 5.348090 -0.000007 -0.000001 -48.980800 16.451600 -38.075000 24.328600 0.000019 0.000005 2.904970 1.991560 -55.594800 22.291600 -0.000001 0.000005 4.756420 5.564790 -9.424510 12.994500 -0.242716 -4.980390 87.824600 3.976120 -61.285500 -5.348130 -0.000001 -0.000004 -64.317000 20.275500 7.810710 -24.328900 0.000322 -0.000009 4.792340 10.527300 -24.653800 -22.291500 -0.000108 -0.000004 1.799700 5.507540 -6.840380 -2.192480 -6.469440 -0.000000 -170.346000 -14.423500 8.759950 39.081100 -0.000007 -0.000012 -0.102953 0.184491 29.163400 40.985400 -0.000006 -0.000013 -9.559720 -3.322640 -75.784700 11.754300 -0.000000 0.000003 -2.097830 -2.523030 -21.825000 -2.192510 6.469440 -0.000001 -160.119000 35.145100 142.628000 -39.081100 -0.002282 -0.040193 -0.124153 0.267659 25.464700 -40.985400 0.000008 0.000006 21.833100 -13.900600 -48.427100 -11.754300 -0.000006 -0.000006 -0.020586 -0.170512 -23.540700
0.000000 0.000000 0.000000 0.000000 0.000000 -0.000000 133.937000 86.508000 130.915000 91.133800 -24.368000 1.663260 15.735700 0.000005 -0.000001 53.185500 81.618900 -50.893100 8.984550 -0.406207 -0.000000 5.930870 -10.055700 5.111130 16.377300 -0.000001 -0.000001 4.221700 -16.709900 2.111790 6.456720 -0.000001 -0.000000 -0.784974 -18.393900 11.179500 12.994200 -0.242716 4.980390 -88.963900 -3.591360 -73.894700 5.348090 -0.000007 -0.000001 -49.017800 21.073200 -37.557500 24.328600 0.000019 0.000005 4.400550 3.074800 -55.122900 22.291600 -0.000001 0.000005 4.310410 5.566090 -9.489660 12.994500 -0.242716 -4.980390 87.585100 4.442140 -61.431300 -5.348130 -0.000001 -0.000004 -64.368300 21.522600 6.940600 -24.328900 0.000322 -0.000009 4.641570 10.690500 -23.642100 -22.291500 -0.000108 -0.000004 1.718320 5.507550 -6.840150 -2.192480 -6.469440 -0.000000 -168.892000 -12.727000 8.858930 39.081100 -0.000007 -0.000012 -0.094746 0.141939 33.724000 40.985400 -0.000006 -0.000013 -11.383700 -3.555990 -72.326700 11.754300 -0.000000 0.000003 -0.026236 -0.199677 -24.748800 -2.192510 6.469440 -0.000001 -162.763000 30.877500 143.346000 -39.081100 -0.002282 -0.040193 -0.106219 0.166989 33.257400 -40.985400 0.000008 0.000006 21.467500 -19.237300 -53.251900 -11.754300 -0.000006 -0.000006 -0.016573 -0.147507 -22.594000
0.000000 0.000000 0.000000 0.000000 0.000000 -0.000000 131.146000 86.587300 134.209000 90.381200 -26.164300 2.651610 15.735700 0.000005 -0.000001 57.851900 81.532600 -55.176900 8.984550 -0.406207 -0.000000 6.853770 -9.003630 5.893230 16.377300 -0.000001 -0.000001 4.301810 -16.218900 2.653380 6.456720 -0.000001 -0.000000 -0.917222 -18.676400 11.585600 12.994200 -0.242716 4.980390 -88.910000 -3.705200 -73.594200 5.348090 -0.000007 -0.000001 -50.198400 25.717900 -35.716800 24.328600 0.000019 0.000005 6.689330 4.869040 -54.107400 22.291600 -0.000001 0.000005 4.093800 5.568850 -9.629400 12.994500 -0.242716 -4.980390 87.650100 4.499720 -62.387500 -5.348130 -0.000001 -0.000004 -65.161800 23.633100 3.876860 -24.328900 0.000322 -0.000009 4.685490 11.886200 -21.703300 -22.291500 -0.000108 -0.000004 1.717640 5.513010 -7.066760 -2.192480 -6.469440 -0.000000 -167.072000 -12.165300 8.451830 39.081100 -0.000007 -0.000012 -0.030719 0.036098 40.399600 40.985400 -0.000006 -0.000013 -10.684300 -5.001830 -64.994000 11.754300 -0.000000 0.000003 -0.081625 -0.396478 -33.044500 -2.192510 6.469440 -0.000001 -163.672000 30.317100 146.667000 -39.081100 -0.002282 -0.040193 -0.046789 0.066287 37.068300 -40.985400 0.000008 0.000006 20.246200 -19.751500 -57.894200 -11.754300 -0.000006 -0.000006 -0.014366 -0.133789 -22.030700
